<?xml version="1.0" encoding="utf-8"?>
<svg viewBox="0 0 512 512" width="512" height="512" xmlns="http://www.w3.org/2000/svg">
  <path d="M 318.408 256 C 318.408 221.533 290.467 193.592 256 193.592 C 221.533 193.592 193.592 221.533 193.592 256 C 193.592 290.467 221.533 318.408 256 318.408 C 290.467 318.408 318.408 290.467 318.408 256 Z M 256 0 C 114.614 0 0 114.614 0 256 C 0 317.028 21.353 373.07 57.001 417.059 L 123.984 350.075 C 105.046 323.549 93.906 291.077 93.906 256 C 93.906 166.479 166.479 93.906 256 93.906 C 266.318 93.906 276.409 94.867 286.192 96.714 L 286.192 187.867 L 417.059 57.001 C 373.07 21.353 317.028 0 256 0 Z M 512 256 C 512 194.972 490.647 138.934 454.999 94.945 L 388.02 161.929 C 406.954 188.451 418.094 220.924 418.094 256 C 418.094 345.521 345.521 418.094 256 418.094 C 245.682 418.094 235.587 417.133 225.803 415.286 L 225.803 324.145 L 94.945 455.003 C 138.934 490.647 194.972 512 256 512 C 397.386 512 512 397.386 512 256 Z" style="" transform="matrix(-1, 0, 0, -1, 512.000008, 512.000008)"/>
</svg>