<?xml version="1.0" encoding="utf-8"?>
<svg viewBox="0 0 512 512" xmlns="http://www.w3.org/2000/svg">
  <defs>
    <linearGradient gradientUnits="userSpaceOnUse" x1="256" y1="0" x2="256" y2="512" id="gradient-2" gradientTransform="matrix(-0.707693, -0.706518, 0.914706, -0.916231, 201.126541, 673.615845)">
      <stop offset="0" style="stop-color: rgb(6, 28, 66);"/>
      <stop offset="1" style="stop-color: rgb(53, 4, 17);"/>
    </linearGradient>
  </defs>
  <rect style="fill-opacity: 0.93; fill: url(#gradient-2);" x="-0.626" width="512" height="512" rx="36" ry="36"/>
  <path d="M 314.592 256 C 314.592 223.641 288.359 197.408 256 197.408 C 223.641 197.408 197.408 223.641 197.408 256 C 197.408 288.359 223.641 314.592 256 314.592 C 288.359 314.592 314.592 288.359 314.592 256 Z M 256 15.653 C 123.258 15.653 15.653 123.258 15.653 256 C 15.653 313.296 35.7 365.912 69.168 407.211 L 132.056 344.323 C 114.276 319.419 103.817 288.933 103.817 256 C 103.817 171.952 171.952 103.817 256 103.817 C 265.687 103.817 275.161 104.719 284.346 106.453 L 284.346 192.033 L 407.211 69.168 C 365.912 35.7 313.296 15.653 256 15.653 Z M 496.347 256 C 496.347 198.704 476.3 146.091 442.832 104.792 L 379.948 167.68 C 397.724 192.582 408.183 223.068 408.183 256 C 408.183 340.048 340.048 408.183 256 408.183 C 246.313 408.183 236.836 407.281 227.649 405.547 L 227.649 319.978 L 104.792 442.835 C 146.091 476.3 198.704 496.347 256 496.347 C 388.742 496.347 496.347 388.742 496.347 256 Z" style="fill: rgb(255, 255, 255);" transform="matrix(-1, 0, 0, -1, 511.999977, 511.999977)"/>
</svg>