<?xml version="1.0" encoding="utf-8"?>
<svg viewBox="29.066 274.296 457.021 69.098" xmlns="http://www.w3.org/2000/svg">
  <path d="M 142.052 299.151 L 142.052 334.796 L 127.794 334.796 L 127.794 299.151 L 111.896 299.151 L 111.896 284.893 L 158.234 284.893 L 151.105 299.151 L 142.052 299.151 Z M 172.644 299.151 L 172.644 306.28 L 186.902 306.28 C 189.278 306.28 190.466 305.092 190.466 302.715 C 190.466 300.339 189.278 299.151 186.902 299.151 L 172.644 299.151 Z M 172.644 320.538 L 172.644 334.796 L 158.386 334.796 L 158.386 284.893 L 186.902 284.893 C 198.783 284.893 204.724 290.834 204.724 302.715 C 204.724 314.597 199.972 320.538 190.466 320.538 L 204.724 334.796 L 186.902 334.796 L 172.644 320.538 Z M 221.645 327.667 L 219.15 334.796 L 204.892 334.796 L 222.714 284.893 L 236.972 284.893 L 254.794 334.796 L 240.536 334.796 L 238.006 327.667 L 221.645 327.667 Z M 233.407 313.409 L 229.843 302.715 L 226.278 313.409 L 233.407 313.409 Z M 269.218 302.715 L 283.476 284.893 L 301.298 284.893 L 280.838 309.844 L 301.298 334.796 L 283.476 334.796 L 269.218 316.973 L 269.218 334.796 L 254.96 334.796 L 254.96 284.893 L 269.218 284.893 L 269.218 302.715 Z M 331.621 299.151 L 331.621 334.796 L 317.363 334.796 L 317.363 299.151 L 301.466 299.151 L 301.466 284.893 L 347.804 284.893 L 340.675 299.151 L 331.621 299.151 Z M 347.956 334.796 L 347.956 284.893 L 372.907 284.893 C 387.165 284.893 394.293 290.252 394.293 300.969 C 394.293 306.886 391.917 309.844 387.165 309.844 C 391.917 309.844 394.293 312.886 394.293 318.969 C 394.293 329.52 387.165 334.796 372.907 334.796 L 347.956 334.796 Z M 362.213 299.151 L 362.213 304.498 L 376.471 304.498 C 378.847 304.498 380.036 303.618 380.036 301.86 C 380.036 300.054 378.847 299.151 376.471 299.151 L 362.213 299.151 Z M 362.213 315.191 L 362.213 320.538 L 376.471 320.538 C 378.847 320.538 380.036 319.635 380.036 317.829 C 380.036 316.07 378.847 315.191 376.471 315.191 L 362.213 315.191 Z M 419.412 334.796 C 412.521 334.796 406.64 332.36 401.768 327.488 C 396.897 322.617 394.461 316.736 394.461 309.844 C 394.461 302.953 396.897 297.072 401.768 292.2 C 406.64 287.329 412.521 284.893 419.412 284.893 C 426.303 284.893 432.185 287.329 437.056 292.2 C 441.928 297.072 444.363 302.953 444.363 309.844 C 444.363 316.736 441.928 322.617 437.056 327.488 C 432.185 332.36 426.303 334.796 419.412 334.796 Z M 419.412 320.538 C 422.359 320.538 424.878 319.492 426.969 317.401 C 429.06 315.31 430.106 312.791 430.106 309.844 C 430.106 306.898 429.06 304.379 426.969 302.288 C 424.878 300.197 422.359 299.151 419.412 299.151 C 416.466 299.151 413.947 300.197 411.856 302.288 C 409.764 304.379 408.719 306.898 408.719 309.844 C 408.719 312.791 409.764 315.31 411.856 317.401 C 413.947 319.492 416.466 320.538 419.412 320.538 Z M 453.151 309.844 L 436.185 284.893 L 452.332 284.893 L 461.029 297.868 L 469.904 284.893 L 486.087 284.893 L 469.334 309.951 L 486.087 334.796 L 470.225 334.796 L 460.922 321.892 L 452.474 334.796 L 436.185 334.796 L 453.151 309.844 Z" style="text-transform: lowercase; white-space: pre;"/>
  <path d="M 72.038 308.845 C 72.038 304.193 68.267 300.422 63.615 300.422 C 58.963 300.422 55.193 304.193 55.193 308.845 C 55.193 313.497 58.963 317.267 63.615 317.267 C 68.267 317.267 72.038 313.497 72.038 308.845 Z M 63.615 274.296 C 44.534 274.296 29.066 289.764 29.066 308.845 C 29.066 317.081 31.947 324.644 36.759 330.581 L 45.798 321.541 C 43.243 317.961 41.739 313.579 41.739 308.845 C 41.739 296.764 51.534 286.97 63.615 286.97 C 65.007 286.97 66.369 287.099 67.689 287.349 L 67.689 299.65 L 85.351 281.989 C 79.414 277.178 71.852 274.296 63.615 274.296 Z M 98.164 308.845 C 98.164 300.609 95.282 293.047 90.471 287.109 L 81.432 296.149 C 83.987 299.73 85.49 304.111 85.49 308.845 C 85.49 320.927 75.696 330.721 63.615 330.721 C 62.222 330.721 60.86 330.591 59.54 330.342 L 59.54 318.042 L 41.88 335.701 C 47.817 340.513 55.379 343.394 63.615 343.394 C 82.696 343.394 98.164 327.926 98.164 308.845 Z" style="" transform="matrix(-1, 0, 0, -1, 127.230003, 617.690002)"/>
</svg>