<?xml version="1.0" encoding="utf-8"?>
<svg viewBox="62.371 173.333 375.613 88.948" xmlns="http://www.w3.org/2000/svg">
  <path d="M 93.21027374267578 212.26747131347656 L 93.21027374267578 247.91200256347656 L 78.95246124267578 247.91200256347656 L 78.95246124267578 212.26747131347656 L 63.05500030517578 212.26747131347656 L 63.05500030517578 198.00965881347656 L 109.39289093017578 198.00965881347656 L 102.26398468017578 212.26747131347656 Z M 123.80267333984375 212.26747131347656 L 123.80267333984375 219.39637756347656 L 138.06048583984375 219.39637756347656 Q 141.62493896484375 219.39637756347656 141.62493896484375 215.83192443847656 Q 141.62493896484375 212.26747131347656 138.06048583984375 212.26747131347656 Z M 123.80267333984375 233.65419006347656 L 123.80267333984375 247.91200256347656 L 109.54486083984375 247.91200256347656 L 109.54486083984375 198.00965881347656 L 138.06048583984375 198.00965881347656 Q 155.88275146484375 198.00965881347656 155.88275146484375 215.83192443847656 Q 155.88275146484375 233.65419006347656 141.62493896484375 233.65419006347656 L 155.88275146484375 247.91200256347656 L 138.06048583984375 247.91200256347656 Z M 172.80328369140625 240.78309631347656 L 170.30816650390625 247.91200256347656 L 156.05035400390625 247.91200256347656 L 173.87261962890625 198.00965881347656 L 188.13043212890625 198.00965881347656 L 205.95269775390625 247.91200256347656 L 191.69488525390625 247.91200256347656 L 189.16412353515625 240.78309631347656 Z M 184.56597900390625 226.52528381347656 L 181.00152587890625 215.83192443847656 L 177.43707275390625 226.52528381347656 Z M 220.37657165527344 215.83192443847656 L 234.63438415527344 198.00965881347656 L 252.45664978027344 198.00965881347656 L 231.99668884277344 222.96083068847656 L 252.45664978027344 247.91200256347656 L 234.63438415527344 247.91200256347656 L 220.37657165527344 230.08973693847656 L 220.37657165527344 247.91200256347656 L 206.11875915527344 247.91200256347656 L 206.11875915527344 198.00965881347656 L 220.37657165527344 198.00965881347656 Z M 282.77952575683594 212.26747131347656 L 282.77952575683594 247.91200256347656 L 268.52171325683594 247.91200256347656 L 268.52171325683594 212.26747131347656 L 252.62425231933594 212.26747131347656 L 252.62425231933594 198.00965881347656 L 298.96214294433594 198.00965881347656 L 291.83323669433594 212.26747131347656 Z M 299.1141052246094 247.91200256347656 L 299.1141052246094 198.00965881347656 L 324.0652770996094 198.00965881347656 Q 345.4519958496094 198.00965881347656 345.4519958496094 214.08534240722656 Q 345.4519958496094 222.96083068847656 338.3230895996094 222.96083068847656 Q 345.4519958496094 222.96083068847656 345.4519958496094 232.08583068847656 Q 345.4519958496094 247.91200256347656 324.0652770996094 247.91200256347656 Z M 313.3719177246094 212.26747131347656 L 313.3719177246094 217.61415100097656 L 327.6297302246094 217.61415100097656 Q 331.1941833496094 217.61415100097656 331.1941833496094 214.97645568847656 Q 331.1941833496094 212.26747131347656 327.6297302246094 212.26747131347656 Z M 313.3719177246094 228.30751037597656 L 313.3719177246094 233.65419006347656 L 327.6297302246094 233.65419006347656 Q 331.1941833496094 233.65419006347656 331.1941833496094 230.94520568847656 Q 331.1941833496094 228.30751037597656 327.6297302246094 228.30751037597656 Z M 370.57073974609375 247.91200256347656 Q 360.23382568359375 247.91200256347656 352.92669677734375 240.60487365722656 Q 345.61956787109375 233.29774475097656 345.61956787109375 222.96083068847656 Q 345.61956787109375 212.62391662597656 352.92669677734375 205.31678771972656 Q 360.23382568359375 198.00965881347656 370.57073974609375 198.00965881347656 Q 380.90765380859375 198.00965881347656 388.21478271484375 205.31678771972656 Q 395.52191162109375 212.62391662597656 395.52191162109375 222.96083068847656 Q 395.52191162109375 233.29774475097656 388.21478271484375 240.60487365722656 Q 380.90765380859375 247.91200256347656 370.57073974609375 247.91200256347656 Z M 370.57073974609375 233.65419006347656 Q 374.99066162109375 233.65419006347656 378.12738037109375 230.51747131347656 Q 381.26409912109375 227.38075256347656 381.26409912109375 222.96083068847656 Q 381.26409912109375 218.54090881347656 378.12738037109375 215.40419006347656 Q 374.99066162109375 212.26747131347656 370.57073974609375 212.26747131347656 Q 366.15081787109375 212.26747131347656 363.01409912109375 215.40419006347656 Q 359.87738037109375 218.54090881347656 359.87738037109375 222.96083068847656 Q 359.87738037109375 227.38075256347656 363.01409912109375 230.51747131347656 Q 366.15081787109375 233.65419006347656 370.57073974609375 233.65419006347656 Z M 404.31005859375 222.96083068847656 L 387.34326171875 198.00965881347656 L 403.490234375 198.00965881347656 L 412.1875 210.98426818847656 L 421.06298828125 198.00965881347656 L 437.24560546875 198.00965881347656 L 420.49267578125 223.06776428222656 L 437.24560546875 247.91200256347656 L 421.3837890625 247.91200256347656 L 412.08056640625 235.00868225097656 L 403.6328125 247.91200256347656 L 387.34326171875 247.91200256347656 Z" transform="matrix(1, 0, 0, 1, 0, 0)" style="fill: rgb(51, 51, 51); text-transform: lowercase; white-space: pre;"/>
</svg>